<svg width="357" height="79" viewBox="0 0 357 79" fill="none" xmlns="http://www.w3.org/2000/svg">
<rect x="192" y="23" width="80" height="32" fill="#2E079D"/>
<path d="M82.2695 52V26.5455H99.1232V30.9826H87.6512V37.0479H98.0046V41.4851H87.6512V52H82.2695ZM102.644 52V32.9091H107.938V52H102.644ZM105.303 30.4482C104.516 30.4482 103.841 30.1871 103.278 29.6651C102.722 29.1348 102.445 28.5009 102.445 27.7635C102.445 27.0343 102.722 26.4087 103.278 25.8867C103.841 25.3564 104.516 25.0913 105.303 25.0913C106.091 25.0913 106.762 25.3564 107.317 25.8867C107.88 26.4087 108.162 27.0343 108.162 27.7635C108.162 28.5009 107.88 29.1348 107.317 29.6651C106.762 30.1871 106.091 30.4482 105.303 30.4482ZM117.475 40.9631V52H112.18V32.9091H117.226V36.2773H117.45C117.872 35.167 118.581 34.2887 119.575 33.6424C120.569 32.9878 121.775 32.6605 123.192 32.6605C124.518 32.6605 125.674 32.9505 126.66 33.5305C127.646 34.1106 128.412 34.9392 128.959 36.0163C129.506 37.0852 129.779 38.3613 129.779 39.8445V52H124.485V40.7891C124.493 39.6207 124.194 38.7093 123.59 38.0547C122.985 37.3918 122.152 37.0604 121.091 37.0604C120.379 37.0604 119.749 37.2137 119.202 37.5202C118.664 37.8268 118.241 38.2743 117.934 38.8626C117.636 39.4426 117.483 40.1428 117.475 40.9631ZM140.987 52.3107C139.537 52.3107 138.224 51.9379 137.047 51.1921C135.879 50.4381 134.951 49.3319 134.263 47.8736C133.584 46.407 133.244 44.6089 133.244 42.4794C133.244 40.2919 133.596 38.4731 134.3 37.0231C135.005 35.5647 135.941 34.4751 137.109 33.7543C138.286 33.0251 139.574 32.6605 140.975 32.6605C142.044 32.6605 142.934 32.8428 143.647 33.2074C144.368 33.5637 144.948 34.0111 145.387 34.5497C145.834 35.08 146.174 35.602 146.406 36.1158H146.568V26.5455H151.85V52H146.63V48.9425H146.406C146.158 49.4728 145.805 49.9989 145.35 50.521C144.902 51.0347 144.318 51.4614 143.597 51.8011C142.885 52.1409 142.015 52.3107 140.987 52.3107ZM142.665 48.0973C143.518 48.0973 144.239 47.8653 144.828 47.4013C145.424 46.929 145.88 46.2702 146.195 45.4251C146.518 44.5799 146.68 43.5897 146.68 42.4545C146.68 41.3194 146.522 40.3333 146.207 39.4964C145.892 38.6596 145.437 38.0133 144.84 37.5575C144.243 37.1018 143.518 36.8739 142.665 36.8739C141.795 36.8739 141.062 37.1101 140.465 37.5824C139.868 38.0547 139.417 38.7093 139.11 39.5462C138.804 40.383 138.65 41.3525 138.65 42.4545C138.65 43.5649 138.804 44.5468 139.11 45.4002C139.425 46.2454 139.877 46.9083 140.465 47.3888C141.062 47.8612 141.795 48.0973 142.665 48.0973ZM168.791 52H163.024L171.811 26.5455H178.746L187.521 52H181.754L175.378 32.3622H175.179L168.791 52ZM168.43 41.9947H182.052V46.1957H168.43V41.9947Z" fill="#2E079D"/>
<path d="M198.686 52V26.5455H215.539V30.9826H204.067V37.0479H214.421V41.4851H204.067V52H198.686ZM219.06 52V32.9091H224.354V52H219.06ZM221.72 30.4482C220.932 30.4482 220.257 30.1871 219.694 29.6651C219.138 29.1348 218.861 28.5009 218.861 27.7635C218.861 27.0343 219.138 26.4087 219.694 25.8867C220.257 25.3564 220.932 25.0913 221.72 25.0913C222.507 25.0913 223.178 25.3564 223.733 25.8867C224.296 26.4087 224.578 27.0343 224.578 27.7635C224.578 28.5009 224.296 29.1348 223.733 29.6651C223.178 30.1871 222.507 30.4482 221.72 30.4482ZM233.891 26.5455V52H228.596V26.5455H233.891ZM238.132 52V32.9091H243.178V36.2773H243.402C243.8 35.1587 244.462 34.2763 245.39 33.63C246.319 32.9837 247.429 32.6605 248.721 32.6605C250.031 32.6605 251.145 32.9878 252.065 33.6424C252.985 34.2887 253.598 35.167 253.904 36.2773H254.103C254.493 35.1836 255.197 34.3094 256.216 33.6548C257.244 32.992 258.457 32.6605 259.858 32.6605C261.639 32.6605 263.085 33.2281 264.196 34.3633C265.314 35.4902 265.873 37.0894 265.873 39.1609V52H260.591V40.2049C260.591 39.1443 260.309 38.3488 259.746 37.8185C259.183 37.2882 258.478 37.0231 257.633 37.0231C256.672 37.0231 255.922 37.3297 255.383 37.9428C254.845 38.5477 254.576 39.3473 254.576 40.3416V52H249.442V40.093C249.442 39.1567 249.173 38.411 248.634 37.8558C248.104 37.3007 247.404 37.0231 246.534 37.0231C245.946 37.0231 245.415 37.1722 244.943 37.4705C244.479 37.7605 244.11 38.1707 243.837 38.701C243.563 39.223 243.427 39.8362 243.427 40.5405V52H238.132Z" fill="white"/>
</svg>
